<svg xmlns="http://www.w3.org/2000/svg" width="1280" height="340" viewBox="0 0 1280 340" font-family="&#39;Hanken Grotesk&#39;,system-ui,sans-serif">
<defs>
<pattern id="g" width="48" height="48" patternUnits="userSpaceOnUse"><path d="M48 0H0V48" fill="none" stroke="#e7e4df" stroke-width="1"></path></pattern>
<radialGradient id="gf" cx="0.3" cy="0.3" r="0.7"><stop offset="0" stop-color="#fff" stop-opacity="1"></stop><stop offset="1" stop-color="#fff" stop-opacity="0"></stop></radialGradient>
<mask id="m"><rect width="1280" height="340" fill="url(#gf)"></rect></mask>
<radialGradient id="glow" cx="0.78" cy="0.4" r="0.5"><stop offset="0" stop-color="#3a5adb" stop-opacity="0.10"></stop><stop offset="1" stop-color="#3a5adb" stop-opacity="0"></stop></radialGradient></defs>
<rect width="1280" height="340" fill="#fcfbf8"></rect><rect width="1280" height="340" fill="url(#g)" opacity="0.6" mask="url(#m)"></rect><rect width="1280" height="340" fill="url(#glow)"></rect>
<g transform="translate(64 56)"><g transform="scale(1.45)"><line x1="1.5" y1="16" x2="30.5" y2="16" stroke="#2b2724" stroke-width="2.6" stroke-linecap="round"></line><rect x="7" y="7" width="18" height="18" rx="5.2" fill="none" stroke="#2b2724" stroke-width="2.6"></rect><circle cx="16" cy="16" r="2.8" fill="#3a5adb"></circle></g><text class="mono" x="60" y="33" font-size="32" font-weight="700" letter-spacing="-0.9" fill="#2b2724">cdr<tspan fill="#3a5adb">-</tspan>kit</text></g>
<g transform="translate(64 116)"><rect width="320" height="26" rx="13" fill="rgba(58,90,219,0.10)" stroke="rgba(58,90,219,0.32)"></rect><text class="mono" x="14" y="17" font-size="11.5" fill="#3a5adb">STORY PROTOCOL · CONFIDENTIAL DATA RAILS</text></g>
<text class="disp" x="64" y="194" font-size="33" font-weight="800" letter-spacing="-1.2" fill="#2b2724">Ship <tspan fill="#3a5adb">encrypted</tspan>, paid,</text>
<text class="disp" x="64" y="232" font-size="33" font-weight="800" letter-spacing="-1.2" fill="#2b2724">license-gated data.</text>
<g transform="translate(64 258)"><rect width="300" height="40" rx="9" fill="#ffffff" stroke="#e7e4df"></rect><text class="mono" x="16" y="26" font-size="14" fill="#2b2724"><tspan fill="#3a5adb">$</tspan> npm create cdr-kit</text></g>
<text x="380" y="284" font-size="13" fill="#948f87">free · MIT · live on Aeneid</text>
<rect x="812" y="70" width="404" height="200" rx="14" fill="#ffffff" stroke="#e7e4df" filter="url(#)"></rect>
<rect x="812" y="70" width="404" height="38" rx="14" fill="#f6f3ee"></rect><rect x="812" y="94" width="404" height="14" fill="#f6f3ee"></rect>
<circle cx="830" cy="89" r="4" fill="#e7e4df"></circle><circle cx="844" cy="89" r="4" fill="#e7e4df"></circle><circle cx="858" cy="89" r="4" fill="#e7e4df"></circle>
<text class="mono" x="874" y="93" font-size="11.5" fill="#948f87">&lt;VaultGate uuid={4200} /&gt;</text>
<text class="mono" x="830" y="132" font-size="11" fill="#948f87">vault.uuid</text><text class="mono" x="1198" y="132" font-size="11.5" text-anchor="end" fill="#2b2724">4200</text>
<text class="mono" x="830" y="154" font-size="11" fill="#948f87">read.condition</text><text class="mono" x="1198" y="154" font-size="11.5" text-anchor="end" fill="#3a5adb">Subscription</text>
<text class="mono" x="830" y="176" font-size="11" fill="#948f87">price.period</text><text class="mono" x="1198" y="176" font-size="11.5" text-anchor="end" fill="#2b2724">5 $IP / 30d</text>
<rect x="830" y="196" width="368" height="44" rx="6" fill="#f6f3ee" stroke="#e7e4df"></rect>
<text class="mono" x="840" y="214" font-size="11" fill="#2b2724">{ &#34;signal&#34;: &#34;BUY&#34;, &#34;pair&#34;: &#34;ETH/USD&#34;,</text>
<text class="mono" x="840" y="229" font-size="11" fill="#2b2724">  &#34;confidence&#34;: 0.86 }</text>
<g transform="translate(830 252)"><line x1="1" y1="9" x2="9" y2="9" stroke="#1e9c66" stroke-width="1.6" stroke-linecap="round"></line><rect x="1" y="9" width="8" height="6" rx="1.4" fill="none" stroke="#1e9c66" stroke-width="1.6"></rect><path d="M3 9V6a2 2 0 0 1 4 0" fill="none" stroke="#1e9c66" stroke-width="1.6" stroke-linecap="round"></path></g>
<text class="mono" x="846" y="265" font-size="11" fill="#1e9c66">condition satisfied · decrypted</text>
</svg>